<?xml version="1.0" standalone="no"?>
<!DOCTYPE svg PUBLIC "-//W3C//DTD SVG 20010904//EN"
 "http://www.w3.org/TR/2001/REC-SVG-20010904/DTD/svg10.dtd">
<svg version="1.0" xmlns="http://www.w3.org/2000/svg"
 width="1024.000000pt" height="722.000000pt" viewBox="0 0 1024.000000 722.000000"
 preserveAspectRatio="xMidYMid meet">

<g transform="translate(0.000000,722.000000) scale(0.100000,-0.100000)"
fill="#000000" stroke="none">
<path d="M2625 6888 c-16 -5 -68 -19 -115 -32 l-85 -22 115 -77 115 -77 3 55
c2 30 2 79 0 108 l-3 53 -30 -8z"/>
<path d="M1500 6784 l0 -106 33 24 c17 14 62 47 100 73 37 27 67 52 67 55 0 6
-169 60 -189 60 -7 0 -11 -39 -11 -106z"/>
<path d="M2082 6387 c-28 -30 -28 -68 1 -95 30 -28 68 -28 95 1 28 30 28 68
-1 95 -30 28 -68 28 -95 -1z"/>
<path d="M2432 6387 c-28 -30 -28 -68 1 -95 30 -28 68 -28 95 1 28 30 28 68
-1 95 -30 28 -68 28 -95 -1z"/>
<path d="M4582 6387 c-28 -30 -28 -68 1 -95 30 -28 68 -28 95 1 28 30 28 68
-1 95 -30 28 -68 28 -95 -1z"/>
<path d="M4932 6387 c-28 -30 -28 -68 1 -95 30 -28 68 -28 95 1 28 30 28 68
-1 95 -30 28 -68 28 -95 -1z"/>
<path d="M2181 6126 c-89 -49 -53 -186 49 -186 33 0 48 6 71 29 80 81 -20 212
-120 157z"/>
<path d="M4775 5907 c-37 -37 -51 -92 -40 -159 9 -49 60 -108 95 -108 12 0 37
15 55 33 37 37 51 92 40 159 -9 49 -60 108 -95 108 -12 0 -37 -15 -55 -33z"/>
<path d="M2040 5868 c-149 -76 9 -226 169 -162 92 36 96 125 8 165 -57 25
-122 24 -177 -3z"/>
</g>
</svg>
