<?xml version="1.0" encoding="utf-8"?>
<!-- Generator: Adobe Illustrator 22.1.0, SVG Export Plug-In . SVG Version: 6.00 Build 0)  -->
<svg version="1.1" id="Слой_1" xmlns="http://www.w3.org/2000/svg" xmlns:xlink="http://www.w3.org/1999/xlink" x="0px" y="0px"
	 viewBox="0 0 728.5 515.9" style="enable-background:new 0 0 728.5 515.9;" xml:space="preserve">
<style type="text/css">
	.st0{fill:#C8C8C8;}
	.st1{fill:#FFA500;}
	.st2{fill:#FFFFFF;}
	.st3{fill:#FF0000;}
	.st4{stroke:#FFA500;stroke-width:4;}
	.st5{fill:#FFFF00;}
</style>
<ellipse class="st0" cx="254" cy="331" rx="50" ry="15"/>
<circle class="st1" cx="254" cy="251" r="80"/>
<circle class="st2" cx="249" cy="231" r="30"/>
<circle class="st2" cx="284" cy="231" r="30"/>
<circle cx="294" cy="231" r="7"/>
<circle cx="259" cy="231" r="7"/>
<circle cx="269" cy="261" r="10"/>
<ellipse transform="matrix(0.2588 -0.9659 0.9659 0.2588 -151.1559 340.993)" class="st1" cx="146.6" cy="269" rx="20" ry="50"/>
<ellipse class="st3" cx="259" cy="286" rx="15" ry="10"/>
<polygon class="st4" points="194,201 221,181 194,173 "/>
<polygon class="st4" points="284,181 314,201 314,173 "/>
<polygon class="st2" points="104,256 131,251 124,276 "/>
<ellipse class="st0" cx="554" cy="331" rx="50" ry="15"/>
<circle class="st5" cx="554" cy="251" r="80"/>
<circle class="st2" cx="514" cy="231" r="30"/>
<circle class="st2" cx="549" cy="231" r="30"/>
<circle cx="509" cy="231" r="7"/>
<circle cx="544" cy="231" r="7"/>
<ellipse class="st3" cx="529" cy="286" rx="10" ry="15"/>
</svg>
